<svg width="70" height="60" viewBox="0 0 70 60" fill="none" xmlns="http://www.w3.org/2000/svg">
<path fill-rule="evenodd" clip-rule="evenodd" d="M47.0499 15.3976C50.8368 13.7987 55.2029 15.5725 56.8017 19.3595L69.2733 48.8993C70.8722 52.6863 69.0984 57.0523 65.3114 58.6511C61.5245 60.25 57.1585 58.4761 55.5596 54.6892L43.088 25.1494C41.4892 21.3624 43.263 16.9964 47.0499 15.3976Z" fill="url(#paint0_linear_2091_7624)"/>
<path fill-rule="evenodd" clip-rule="evenodd" d="M60.5336 2.03629C60.2956 0.485849 58.563 -0.330708 57.2129 0.471283L43.0597 8.87899C41.5037 9.80332 41.5829 12.0796 43.1993 12.8916L45.3223 13.958L35.0849 36.2733L27.9121 21.4142C24.6783 14.715 15.0554 14.9568 12.162 21.8099L0.724716 48.8998C-0.874115 52.6867 0.899693 57.0527 4.68663 58.6516C8.47356 60.2504 12.8396 58.4766 14.4384 54.6897L20.5069 40.316L27.531 54.8669C30.6757 61.3815 39.9857 61.2901 43.002 54.7152L58.6326 20.6439L59.8191 21.24C61.4821 22.0753 63.3964 20.6846 63.1142 18.8461L60.5336 2.03629Z" fill="#FF2C6B"/>
<defs>
<linearGradient id="paint0_linear_2091_7624" x1="56.1807" y1="14.8096" x2="56.1807" y2="59.2391" gradientUnits="userSpaceOnUse">
<stop stop-color="#61B9FF"/>
<stop offset="1" stop-color="#0299FE"/>
</linearGradient>
</defs>
</svg>
